<svg width="44" height="31" viewBox="0 0 44 31" fill="none" xmlns="http://www.w3.org/2000/svg">
<path fill-rule="evenodd" clip-rule="evenodd" d="M43.0703 26.4843C43.0703 29.1718 41.4453 30.703 38.6484 30.703H34.9922C32.1953 30.703 30.5859 29.1718 30.5859 26.4843V4.99988C30.5859 2.328 32.1953 0.781128 34.9922 0.781128H38.6484C41.4453 0.781128 43.0703 2.328 43.0703 4.99988V26.4843ZM35.5703 27.5314H38.1016C39.2109 27.5314 39.6797 27.0782 39.6797 26.0001V5.50012C39.6797 4.422 39.2109 3.95325 38.1172 3.95325H35.5703C34.4766 3.95325 34.0078 4.422 34.0078 5.50012V26.0001C34.0078 27.0782 34.4766 27.5314 35.5703 27.5314ZM23.8516 30.7031C26.6484 30.7031 28.2734 29.1719 28.2734 26.4844V9.54688C28.2734 6.875 26.6484 5.34375 23.8516 5.34375H20.1953C17.3828 5.34375 15.7734 6.875 15.7734 9.5625V26.4844C15.7734 29.1719 17.3828 30.7031 20.1953 30.7031H23.8516ZM20.7578 27.5314H23.2891C24.3828 27.5314 24.8516 27.0782 24.8516 26.0001V10.047C24.8516 8.96887 24.3828 8.50012 23.2891 8.50012H20.7578C19.6641 8.50012 19.1953 8.96887 19.1953 10.047V26.0001C19.1953 27.0782 19.6641 27.5314 20.7578 27.5314ZM9.04688 30.703C11.8594 30.703 13.4688 29.1717 13.4688 26.4842V14.1249C13.4688 11.453 11.8594 9.92174 9.04688 9.92174H5.40625C2.59375 9.92174 0.984375 11.453 0.984375 14.1405V26.4842C0.984375 29.1717 2.59375 30.703 5.40625 30.703H9.04688ZM5.96094 27.5312H8.47656C9.58594 27.5312 10.0547 27.0781 10.0547 26V14.625C10.0547 13.5469 9.58594 13.0781 8.49219 13.0781H5.96094C4.86719 13.0781 4.38281 13.5469 4.38281 14.625V26C4.38281 27.0781 4.86719 27.5312 5.96094 27.5312Z" fill="white"/>
</svg>
