<svg width="64" height="64" viewBox="0 0 64 64" fill="none" xmlns="http://www.w3.org/2000/svg">
<rect width="64" height="64" rx="12" fill="white"/>
<g clip-path="url(#clip0_323_5911)">
<path d="M14.7776 23.5456C14.5653 23.3282 14.353 23.165 14.0876 23.0019C13.8753 22.8932 13.5569 22.8388 13.2385 22.8388C12.92 22.8388 12.6016 22.8932 12.3893 23.0019C12.1239 23.1107 11.9116 23.2738 11.7524 23.4913C11.5932 23.7087 11.487 23.9806 11.3809 24.2524C11.2747 24.5243 11.2747 24.7961 11.2747 25.1223C11.2747 25.4485 11.3278 25.7204 11.434 25.9922C11.5401 26.2641 11.6463 26.4816 11.8585 26.699C12.0708 26.9165 12.2301 27.0796 12.4954 27.1884C12.7608 27.2971 13.0262 27.3515 13.3446 27.3515C13.663 27.3515 13.9815 27.2971 14.1938 27.1884C14.4061 27.0796 14.6714 26.8621 14.8307 26.6447L15.6798 27.5146C15.3614 27.8408 14.9899 28.1126 14.6184 28.2757C14.1938 28.4388 13.7692 28.4932 13.2915 28.4932C12.8139 28.4932 12.3362 28.4388 11.9647 28.2214C11.5932 28.0583 11.2217 27.8408 10.9032 27.5146C10.5848 27.1884 10.3725 26.8621 10.2133 26.4816C10.054 26.0466 10.001 25.5573 10.001 25.068C10.001 24.5786 10.1071 24.0893 10.2133 23.7087C10.3725 23.2738 10.5848 22.9476 10.9032 22.6214C11.2217 22.2951 11.5401 22.0777 11.9647 21.9146C12.3893 21.7515 12.8139 21.6427 13.2915 21.6427C13.7692 21.6427 14.1938 21.7515 14.6184 21.9146C15.0429 22.0777 15.4145 22.3495 15.7329 22.6757L14.7776 23.5456ZM16.9536 18H18.1212V22.8388H18.1743C18.3335 22.5126 18.5989 22.2408 18.9704 22.0233C19.3419 21.8058 19.7665 21.6971 20.2441 21.6971C20.5626 21.6971 20.828 21.7515 21.0933 21.8602C21.3587 21.9689 21.6241 22.0777 21.8363 22.2951C22.0486 22.5126 22.2079 22.7301 22.314 23.0563C22.4202 23.3825 22.5263 23.7631 22.5263 24.1437V28.2757H21.3587V24.4699C21.3587 24.1437 21.3056 23.9262 21.2525 23.7087C21.1995 23.4913 21.0402 23.3282 20.9341 23.2194C20.7218 23.0563 20.6157 22.9476 20.4034 22.8932C20.2441 22.8388 20.0318 22.7845 19.8726 22.7845C19.6073 22.7845 19.395 22.8388 19.1827 22.8932C18.9704 22.9476 18.7581 23.1107 18.6519 23.2738C18.4927 23.4369 18.3866 23.6544 18.2804 23.9262C18.1743 24.1981 18.1743 24.5243 18.1743 24.9049V28.2214H17.0067L16.9536 18ZM24.5962 22.6214C24.9146 22.2951 25.3392 22.0777 25.7638 21.9146C26.1884 21.7515 26.613 21.6971 27.0906 21.6971C27.5683 21.6971 27.9398 21.7515 28.2582 21.8602C28.5767 21.9689 28.842 22.132 29.0543 22.3495C29.2666 22.567 29.4258 22.7845 29.532 23.0563C29.6381 23.3282 29.6912 23.6 29.6912 23.8718V27.7864C29.6912 27.9495 29.6912 28.167 29.7443 28.3301H28.6828C28.6828 28.0039 28.6297 27.6777 28.6297 27.3515C28.3644 27.7864 28.0459 28.0583 27.6744 28.2214C27.3029 28.3845 26.8783 28.4932 26.4007 28.4932C26.1353 28.4932 25.8168 28.4388 25.5515 28.3845C25.2861 28.3301 25.0738 28.167 24.8615 28.0039C24.6492 27.8408 24.49 27.6233 24.3839 27.4058C24.2777 27.1883 24.2246 26.8621 24.2246 26.5903C24.2246 26.1553 24.3308 25.8291 24.49 25.5573C24.6492 25.2854 24.9146 25.068 25.233 24.8505C25.5515 24.6874 25.923 24.5243 26.3476 24.4699C26.7722 24.4155 27.1968 24.3612 27.6744 24.3612H28.5767V24.0893C28.5767 23.7631 28.4174 23.3825 28.2052 23.165C28.099 23.0019 27.9398 22.9476 27.7275 22.8388C27.5683 22.7845 27.3029 22.7301 27.0906 22.7301C26.8783 22.7301 26.666 22.7301 26.5068 22.7845C26.3476 22.8388 26.1353 22.8388 26.0291 22.8932C25.8699 22.9476 25.7638 23.0563 25.6576 23.1107C25.5515 23.2194 25.4453 23.2738 25.3392 23.3825L24.5962 22.6214ZM27.9398 25.1767C27.6744 25.1767 27.356 25.1767 27.0906 25.2311L26.2945 25.3942C26.0822 25.4485 25.8699 25.6117 25.7107 25.7748C25.5515 25.9379 25.4984 26.1553 25.4984 26.3728C25.4984 26.7534 25.6046 27.0252 25.8699 27.1884C26.1353 27.3515 26.4537 27.4602 26.8783 27.4602C27.1968 27.4602 27.4621 27.4058 27.7275 27.2971C27.9398 27.1884 28.1521 27.0252 28.2582 26.8621C28.4174 26.699 28.5236 26.4816 28.5767 26.2641C28.6297 26.0466 28.6828 25.8291 28.6828 25.6117V25.1767H27.9398ZM31.6549 21.8602H32.8225V22.8388C32.9818 22.5126 33.2471 22.2408 33.6186 22.0233C33.9902 21.8058 34.4147 21.6971 34.8924 21.6971C35.2108 21.6971 35.4762 21.7515 35.7416 21.8602C36.0069 21.9689 36.2723 22.0777 36.4846 22.2951C36.6969 22.5126 36.8561 22.7301 36.9623 23.0563C37.0684 23.3825 37.1215 23.7631 37.1215 24.1437V28.2757H35.9539V24.4699C35.9539 24.1437 35.9008 23.9262 35.8477 23.7087C35.7416 23.4913 35.6885 23.3282 35.5293 23.2194C35.4762 23.0563 35.317 22.9476 35.1578 22.8932C34.9985 22.8388 34.7863 22.7845 34.627 22.7845C34.3617 22.7845 34.1494 22.8388 33.9371 22.8932C33.7248 22.9476 33.5125 23.1107 33.4063 23.2738C33.2471 23.4369 33.141 23.6544 33.0348 23.9262C32.9287 24.1981 32.9287 24.5243 32.9287 24.9049V28.2214H31.7611L31.6549 21.8602ZM45.6132 28.2214C45.6132 28.7107 45.5071 29.1456 45.3479 29.5806C45.1886 29.9612 44.9763 30.3417 44.6579 30.6136C44.3395 30.8854 44.021 31.1573 43.5964 31.3204C43.1719 31.4835 42.6942 31.5922 42.1635 31.5922C41.5796 31.5922 40.9958 31.4835 40.5182 31.3204C40.0405 31.1573 39.5629 30.8311 39.0852 30.4505L39.8813 29.4175C40.1997 29.7437 40.5182 30.0155 40.8897 30.1786C41.2612 30.3417 41.6858 30.4505 42.1104 30.4505C42.535 30.4505 42.9065 30.3961 43.2249 30.233C43.4903 30.1243 43.7557 29.9068 43.9149 29.7437C44.0741 29.5806 44.2333 29.3087 44.2864 29.0369C44.3395 28.765 44.3925 28.4932 44.3925 28.2214V27.2427H44.3395C44.1272 27.6233 43.8087 27.9495 43.3841 28.1126C43.0126 28.2757 42.588 28.3845 42.1635 28.3845C41.6858 28.3845 41.2612 28.2757 40.8897 28.1126C40.5182 27.9495 40.1467 27.732 39.8813 27.4058C39.6159 27.0796 39.3506 26.7534 39.2444 26.3728C39.0852 25.9379 38.9791 25.5029 38.9791 25.068C38.9791 24.5786 39.0321 24.1437 39.1913 23.7631C39.3506 23.3825 39.5629 23.0019 39.8282 22.6757C40.0936 22.3495 40.4651 22.132 40.8366 21.9689C41.2081 21.8058 41.6858 21.6971 42.1635 21.6971C42.588 21.6971 43.0126 21.8058 43.3841 21.9689C43.8087 22.132 44.1272 22.4039 44.3395 22.7845H44.3925V21.8602H45.5602L45.6132 28.2214ZM42.3227 22.7845C42.0042 22.7845 41.7389 22.8388 41.4735 22.9476C41.2081 23.0563 40.9958 23.2194 40.8366 23.4369C40.6774 23.6544 40.5182 23.8718 40.412 24.1437C40.3059 24.4155 40.2528 24.7417 40.2528 25.068C40.2528 25.7204 40.412 26.2641 40.7835 26.6447C41.1551 27.0252 41.6858 27.2427 42.2696 27.2427C42.9065 27.2427 43.4372 27.0252 43.7557 26.6447C44.1272 26.2641 44.2864 25.7204 44.2864 25.068C44.2864 24.7417 44.2333 24.4155 44.1272 24.1437C44.021 23.8718 43.9149 23.6544 43.7026 23.4369C43.5434 23.2194 43.278 23.0563 43.0657 22.9476C42.9065 22.8932 42.6411 22.7845 42.3227 22.7845ZM48.5323 25.5029C48.5323 25.7748 48.5853 26.0466 48.6915 26.2641C48.7976 26.4816 48.9569 26.699 49.1691 26.8621C49.3814 27.0252 49.5937 27.134 49.8591 27.2427C50.1245 27.3515 50.3898 27.3515 50.6552 27.3515C51.0267 27.3515 51.3452 27.2427 51.6105 27.0796C51.8759 26.9165 52.1413 26.6447 52.3536 26.3728L53.2558 27.0796C52.6189 27.9495 51.6636 28.3845 50.496 28.3845C50.0183 28.3845 49.5407 28.2757 49.1691 28.1126C48.7976 27.9495 48.4261 27.732 48.1608 27.4058C47.8954 27.0796 47.6831 26.7534 47.5239 26.3184C47.3646 25.8835 47.3116 25.4485 47.3116 24.9592C47.3116 24.4699 47.4177 24.035 47.5769 23.6C47.7362 23.2194 47.9485 22.8388 48.2669 22.5126C48.5323 22.1864 48.9038 21.9689 49.2753 21.8058C49.6999 21.6427 50.1245 21.534 50.5491 21.534C51.1329 21.534 51.5574 21.6427 51.982 21.8602C52.4066 22.0777 52.672 22.2951 52.9374 22.6214C53.2027 22.9476 53.3619 23.3282 53.4681 23.7087C53.5742 24.0893 53.6273 24.5243 53.6273 24.9592V25.3942H48.5323V25.5029ZM52.3005 24.5243C52.3005 24.2524 52.2474 24.035 52.1943 23.7631C52.1413 23.5456 51.982 23.3282 51.8759 23.165C51.7167 23.0019 51.5044 22.8388 51.2921 22.7845C51.0798 22.6757 50.8144 22.6214 50.496 22.6214C49.6999 22.6214 49.0099 23.1107 48.6915 23.8175C48.5853 24.035 48.5323 24.2524 48.5323 24.4699H52.3005V24.5243Z" fill="#2B2B37"/>
<path d="M30.3278 46C29.4256 46 28.5764 45.8369 27.7803 45.5107C26.9842 45.1845 26.3473 44.7495 25.8166 44.1515C25.2859 43.5534 24.8082 42.8466 24.5428 42.0854C24.2244 41.2699 24.0652 40.4544 24.0652 39.5301C24.0652 38.6058 24.2244 37.7359 24.5428 36.9748C24.8613 36.1592 25.2859 35.5068 25.8166 34.9087C26.3473 34.3107 27.0373 33.8757 27.7803 33.5495C28.5764 33.2233 29.3725 33.0602 30.3278 33.0602C31.2301 33.0602 32.0793 33.2233 32.8754 33.5495C33.6715 33.8757 34.3084 34.3107 34.8391 34.9087C35.3698 35.5068 35.7944 36.1592 36.1128 36.9748C36.4313 37.7903 36.5905 38.6058 36.5905 39.5301C36.5905 40.4544 36.4313 41.3243 36.1128 42.0854C35.7944 42.901 35.3698 43.5534 34.8391 44.1515C34.3084 44.7495 33.6184 45.1845 32.8754 45.5107C32.1323 45.8369 31.2301 46 30.3278 46ZM30.3278 44.4233C31.0178 44.4233 31.6547 44.3146 32.1854 44.0427C32.7161 43.7709 33.1938 43.4447 33.6184 43.0097C34.043 42.5748 34.3084 42.0311 34.5206 41.433C34.7329 40.8349 34.8391 40.1825 34.8391 39.5301C34.8391 38.8777 34.7329 38.2252 34.5206 37.6272C34.3084 37.0291 33.9899 36.5398 33.6184 36.0505C33.1938 35.6155 32.7161 35.2349 32.1854 35.0175C31.6547 34.7456 31.0178 34.6369 30.3278 34.6369C29.6379 34.6369 29.001 34.7456 28.4703 35.0175C27.9395 35.2893 27.4619 35.6155 27.0373 36.0505C26.6127 36.4854 26.3473 37.0291 26.135 37.6272C25.9228 38.2252 25.8166 38.8777 25.8166 39.5301C25.8166 40.1825 25.9228 40.8349 26.135 41.433C26.3473 42.0311 26.6658 42.5204 27.0373 43.0097C27.4619 43.4447 27.9395 43.8252 28.4703 44.0427C29.001 44.3146 29.6379 44.4233 30.3278 44.4233ZM10.9561 33.332H13.079L19.7132 43.4447H19.7662V33.332H21.4115V45.6738H19.3417L12.6013 35.5612V45.6738H10.9561M37.705 33.332H39.4034L42.0571 43.1728H42.1101L44.923 33.332H46.7806L49.5935 43.1728H49.6466L52.3002 33.332H53.9986L50.4957 45.6738H48.7974L45.8783 35.6155H45.8253L42.9062 45.6738H41.2079" fill="#3BEE81"/>
<g clip-path="url(#clip1_323_5911)">
<path d="M288.46 314.584C276.397 302.522 264.335 293.476 249.258 284.429C237.196 278.398 219.102 275.383 201.009 275.383C182.916 275.383 164.823 278.398 152.761 284.429C137.683 290.46 125.621 299.507 116.574 311.569C107.528 323.631 101.496 338.709 95.4654 353.786C89.4343 368.864 89.4343 383.942 89.4343 402.035C89.4343 420.128 92.4499 435.206 98.4809 450.283C104.512 465.361 110.543 477.423 122.605 489.485C134.667 501.548 143.714 510.594 158.792 516.625C173.869 522.656 188.947 525.672 207.04 525.672C225.133 525.672 243.227 522.656 255.289 516.625C267.351 510.594 282.429 498.532 291.475 486.47L339.724 534.718C321.63 552.812 300.522 567.889 279.413 576.936C255.289 585.983 231.164 588.998 204.025 588.998C176.885 588.998 149.745 585.983 128.636 573.92C107.528 564.874 86.4188 552.812 68.3256 534.718C50.2324 516.625 38.1703 498.532 29.1237 477.423C20.0771 453.299 17.0615 426.159 17.0615 399.019C17.0615 371.88 23.0926 344.74 29.1237 323.631C38.1703 299.507 50.2324 281.414 68.3256 263.32C86.4188 245.227 104.512 233.165 128.636 224.118C152.761 215.072 176.885 209.041 204.025 209.041C231.164 209.041 255.289 215.072 279.413 224.118C303.537 233.165 324.646 248.243 342.739 266.336L288.46 314.584ZM412.096 6.99999H478.438V275.383H481.454C490.5 257.289 505.578 242.212 526.687 230.15C547.795 218.087 571.92 212.056 599.06 212.056C617.153 212.056 632.23 215.072 647.308 221.103C662.386 227.134 677.463 233.165 689.526 245.227C701.588 257.289 710.634 269.351 716.665 287.445C722.697 305.538 728.728 326.647 728.728 347.755V576.936H662.386V365.849C662.386 347.755 659.37 335.693 656.355 323.631C653.339 311.569 644.293 302.522 638.262 296.491C626.199 287.445 620.168 281.414 608.106 278.398C599.06 275.383 586.997 272.367 577.951 272.367C562.873 272.367 550.811 275.383 538.749 278.398C526.687 281.414 514.625 290.46 508.594 299.507C499.547 308.553 493.516 320.616 487.485 335.693C481.454 350.771 481.454 368.864 481.454 389.973V573.92H415.112L412.096 6.99999ZM846.333 263.32C864.427 245.227 888.551 233.165 912.675 224.118C936.799 215.072 960.924 212.056 988.064 212.056C1015.2 212.056 1036.31 215.072 1054.41 221.103C1072.5 227.134 1087.58 236.181 1099.64 248.243C1111.7 260.305 1120.75 272.367 1126.78 287.445C1132.81 302.522 1135.82 317.6 1135.82 332.678V549.796C1135.82 558.843 1135.82 570.905 1138.84 579.951H1078.53C1078.53 561.858 1075.51 543.765 1075.51 525.672C1060.44 549.796 1042.34 564.874 1021.23 573.92C1000.13 582.967 976.001 588.998 948.862 588.998C933.784 588.998 915.691 585.983 900.613 582.967C885.535 579.951 873.473 570.905 861.411 561.858C849.349 552.812 840.302 540.749 834.271 528.687C828.24 516.625 825.225 498.532 825.225 483.454C825.225 459.33 831.256 441.237 840.302 426.159C849.349 411.082 864.427 399.019 882.52 386.957C900.613 377.911 921.722 368.864 945.846 365.849C969.97 362.833 994.095 359.817 1021.23 359.817H1072.5V344.74C1072.5 326.647 1063.45 305.538 1051.39 293.476C1045.36 284.429 1036.31 281.414 1024.25 275.383C1015.2 272.367 1000.13 269.351 988.064 269.351C976.001 269.351 963.939 269.351 954.893 272.367C945.846 275.383 933.784 275.383 927.753 278.398C918.706 281.414 912.675 287.445 906.644 290.46C900.613 296.491 894.582 299.507 888.551 305.538L846.333 263.32ZM1036.31 405.05C1021.23 405.05 1003.14 405.05 988.064 408.066L942.83 417.113C930.768 420.128 918.706 429.175 909.66 438.221C900.613 447.268 897.597 459.33 897.597 471.392C897.597 492.501 903.629 507.579 918.706 516.625C933.784 525.672 951.877 531.703 976.001 531.703C994.095 531.703 1009.17 528.687 1024.25 522.656C1036.31 516.625 1048.37 507.579 1054.41 498.532C1063.45 489.485 1069.48 477.423 1072.5 465.361C1075.51 453.299 1078.53 441.237 1078.53 429.175V405.05H1036.31ZM1247.4 221.103H1313.74V275.383C1322.79 257.289 1337.87 242.212 1358.97 230.15C1380.08 218.087 1404.21 212.056 1431.35 212.056C1449.44 212.056 1464.52 215.072 1479.6 221.103C1494.67 227.134 1509.75 233.165 1521.81 245.227C1533.88 257.289 1542.92 269.351 1548.95 287.445C1554.98 305.538 1558 326.647 1558 347.755V576.936H1491.66V365.849C1491.66 347.755 1488.64 335.693 1485.63 323.631C1479.6 311.569 1476.58 302.522 1467.53 296.491C1464.52 287.445 1455.47 281.414 1446.42 278.398C1437.38 275.383 1425.32 272.367 1416.27 272.367C1401.19 272.367 1389.13 275.383 1377.07 278.398C1365.01 281.414 1352.94 290.46 1346.91 299.507C1337.87 308.553 1331.83 320.616 1325.8 335.693C1319.77 350.771 1319.77 368.864 1319.77 389.973V573.92H1253.43L1247.4 221.103ZM2040.48 573.92C2040.48 601.06 2034.45 625.184 2025.41 649.309C2016.36 670.417 2004.3 691.526 1986.21 706.604C1968.11 721.682 1950.02 736.759 1925.89 745.806C1901.77 754.852 1874.63 760.883 1844.48 760.883C1811.3 760.883 1778.13 754.852 1750.99 745.806C1723.85 736.759 1696.71 718.666 1669.57 697.557L1714.81 640.262C1732.9 658.355 1750.99 673.433 1772.1 682.48C1793.21 691.526 1817.34 697.557 1841.46 697.557C1865.58 697.557 1886.69 694.542 1904.79 685.495C1919.86 679.464 1934.94 667.402 1943.99 658.355C1953.03 649.309 1962.08 634.231 1965.1 619.153C1968.11 604.076 1971.13 588.998 1971.13 573.92V519.641H1968.11C1956.05 540.75 1937.96 558.843 1913.83 567.889C1892.72 576.936 1868.6 582.967 1844.48 582.967C1817.34 582.967 1793.21 576.936 1772.1 567.889C1750.99 558.843 1729.88 546.781 1714.81 528.687C1699.73 510.594 1684.65 492.501 1678.62 471.392C1669.57 447.268 1663.54 423.144 1663.54 399.019C1663.54 371.88 1666.56 347.755 1675.61 326.647C1684.65 305.538 1696.71 284.429 1711.79 266.336C1726.87 248.243 1747.98 236.181 1769.09 227.134C1790.2 218.087 1817.34 212.056 1844.48 212.056C1868.6 212.056 1892.72 218.087 1913.83 227.134C1937.96 236.181 1956.05 251.258 1968.11 272.367H1971.13V221.103H2037.47L2040.48 573.92ZM1853.52 272.367C1835.43 272.367 1820.35 275.383 1805.27 281.414C1790.2 287.445 1778.13 296.491 1769.09 308.553C1760.04 320.616 1750.99 332.678 1744.96 347.755C1738.93 362.833 1735.92 380.926 1735.92 399.019C1735.92 435.206 1744.96 465.361 1766.07 486.47C1787.18 507.579 1817.34 519.641 1850.51 519.641C1886.69 519.641 1916.85 507.579 1934.94 486.47C1956.05 465.361 1965.1 435.206 1965.1 399.019C1965.1 380.926 1962.08 362.833 1956.05 347.755C1950.02 332.678 1943.99 320.616 1931.93 308.553C1922.88 296.491 1907.8 287.445 1895.74 281.414C1886.69 278.398 1871.61 272.367 1853.52 272.367ZM2206.34 423.144C2206.34 438.221 2209.35 453.299 2215.39 465.361C2221.42 477.423 2230.46 489.485 2242.53 498.532C2254.59 507.579 2266.65 513.61 2281.73 519.641C2296.81 525.672 2311.88 525.672 2326.96 525.672C2348.07 525.672 2366.16 519.641 2381.24 510.594C2396.32 501.548 2411.4 486.47 2423.46 471.392L2474.72 510.594C2438.54 558.843 2384.26 582.967 2317.91 582.967C2290.77 582.967 2263.63 576.936 2242.53 567.889C2221.42 558.843 2200.31 546.781 2185.23 528.687C2170.15 510.594 2158.09 492.501 2149.04 468.377C2140 444.252 2136.98 420.128 2136.98 392.988C2136.98 365.849 2143.01 341.724 2152.06 317.6C2161.11 296.491 2173.17 275.383 2191.26 257.289C2206.34 239.196 2227.45 227.134 2248.56 218.087C2272.68 209.041 2296.81 203.01 2320.93 203.01C2354.1 203.01 2378.22 209.041 2402.35 221.103C2426.47 233.165 2441.55 245.227 2456.63 263.32C2471.71 281.414 2480.75 302.522 2486.78 323.631C2492.81 344.74 2495.83 368.864 2495.83 392.988V417.113H2206.34V423.144ZM2420.44 368.864C2420.44 353.786 2417.43 341.724 2414.41 326.647C2411.4 314.584 2402.35 302.522 2396.32 293.476C2387.27 284.429 2375.21 275.383 2363.15 272.367C2351.08 266.336 2336.01 263.32 2317.91 263.32C2272.68 263.32 2233.48 290.46 2215.39 329.662C2209.35 341.724 2206.34 353.786 2206.34 365.849H2420.44V368.864Z" fill="#2B2B37"/>
</g>
</g>
<defs>
<clipPath id="clip0_323_5911">
<rect width="44" height="28" fill="white" transform="translate(10 18)"/>
</clipPath>
<clipPath id="clip1_323_5911">
<rect width="2500" height="1553" fill="white" transform="translate(17 7)"/>
</clipPath>
</defs>
</svg>
