<svg width="30" height="24" viewBox="0 0 30 24" fill="none" xmlns="http://www.w3.org/2000/svg">
<path fill-rule="evenodd" clip-rule="evenodd" d="M25.3963 2.46549C23.4842 1.58814 21.4337 0.941747 19.2899 0.57153C19.2508 0.564385 19.2118 0.582241 19.1917 0.617953C18.928 1.08697 18.6359 1.69885 18.4314 2.17977C16.1255 1.83456 13.8315 1.83456 11.5729 2.17977C11.3683 1.68816 11.0656 1.08697 10.8007 0.617953C10.7806 0.583432 10.7416 0.565576 10.7026 0.57153C8.55989 0.940564 6.50945 1.58696 4.59617 2.46549C4.57961 2.47263 4.56541 2.48455 4.55599 2.50001C0.66674 8.31046 -0.398688 13.9781 0.123975 19.5755C0.12634 19.6028 0.141712 19.629 0.162998 19.6457C2.72901 21.5301 5.21463 22.6741 7.6541 23.4324C7.69314 23.4443 7.73451 23.43 7.75935 23.3979C8.33641 22.6099 8.8508 21.7789 9.29184 20.9051C9.31787 20.854 9.29303 20.7933 9.23983 20.773C8.42391 20.4635 7.647 20.0861 6.89966 19.6576C6.84055 19.6231 6.83582 19.5385 6.8902 19.4981C7.04746 19.3802 7.20477 19.2576 7.35494 19.1338C7.38211 19.1112 7.41997 19.1064 7.45191 19.1207C12.3616 21.3623 17.6769 21.3623 22.5287 19.1207C22.5606 19.1052 22.5985 19.11 22.6268 19.1326C22.7771 19.2564 22.9343 19.3802 23.0928 19.4981C23.1472 19.5385 23.1436 19.6231 23.0845 19.6576C22.3372 20.0945 21.5602 20.4635 20.7431 20.7718C20.6899 20.7921 20.6663 20.854 20.6923 20.9051C21.1428 21.7777 21.6572 22.6086 22.2236 23.3967C22.2473 23.43 22.2898 23.4443 22.3289 23.4324C24.7802 22.6741 27.2658 21.5301 29.8318 19.6457C29.8543 19.629 29.8685 19.604 29.8708 19.5766C30.4963 13.1055 28.8231 7.48432 25.4353 2.5012C25.427 2.48455 25.4128 2.47263 25.3963 2.46549ZM10.0241 16.1672C8.54599 16.1672 7.32803 14.8102 7.32803 13.1436C7.32803 11.477 8.52237 10.1199 10.0241 10.1199C11.5377 10.1199 12.7439 11.4889 12.7202 13.1436C12.7202 14.8102 11.5259 16.1672 10.0241 16.1672ZM17.2988 13.1436C17.2988 14.8102 18.5168 16.1672 19.9949 16.1672C21.5085 16.1672 22.691 14.8102 22.691 13.1436C22.7146 11.4889 21.5085 10.1199 19.9949 10.1199C18.4931 10.1199 17.2988 11.477 17.2988 13.1436Z" fill="white"/>
</svg>
