<svg width="20" height="20" viewBox="0 0 20 20" fill="none" xmlns="http://www.w3.org/2000/svg">
<g id="external">
<path id="shape" fill-rule="evenodd" clip-rule="evenodd" d="M14.9775 5.64948C14.3428 5.02081 13.4761 4.88043 12.3164 4.88043H7.67163C6.52417 4.88043 5.65137 5.02081 5.02271 5.64948C4.39404 6.28424 4.25977 7.13873 4.25977 8.28619V12.9005C4.25977 14.0662 4.39404 14.9268 5.02271 15.5555C5.65747 16.1841 6.51807 16.3245 7.68384 16.3245H12.3164C13.4761 16.3245 14.3428 16.1841 14.9775 15.5555C15.6062 14.9207 15.7405 14.0662 15.7405 12.9005V8.2984C15.7405 7.13263 15.6062 6.27814 14.9775 5.64948ZM14.3793 8.13361V13.0714C14.3793 13.7122 14.2938 14.2371 13.9825 14.5606C13.6652 14.878 13.1219 14.9634 12.4872 14.9634H7.51282C6.87805 14.9634 6.33484 14.8719 6.01746 14.5606C5.70007 14.2371 5.62073 13.7122 5.62073 13.0714V8.14581C5.62073 7.49274 5.70007 6.96173 6.01746 6.64435C6.33484 6.32697 6.87805 6.24152 7.52502 6.24152H12.4872C13.1219 6.24152 13.6652 6.32697 13.9825 6.64435C14.2999 6.96173 14.3793 7.49274 14.3793 8.13361ZM12.4384 11.6431C12.4384 11.9971 12.2308 12.2413 11.9012 12.2413C11.5656 12.2413 11.358 12.0093 11.358 11.6431V10.7337L11.4435 9.90973L10.6622 10.7703L8.61755 12.815C8.48328 12.9432 8.33679 13.0042 8.15979 13.0042C7.81799 13.0042 7.56165 12.7723 7.56165 12.4122C7.56165 12.2535 7.63489 12.0948 7.75085 11.9788L9.80774 9.91583L10.6805 9.13458L9.89319 9.22614H8.92273C8.56262 9.22614 8.32458 9.01862 8.32458 8.68903C8.32458 8.35333 8.56262 8.14581 8.92273 8.14581H11.7487C12.1759 8.14581 12.4384 8.37164 12.4384 8.82941V11.6431Z" fill="white"/>
</g>
</svg>
