<svg width="64" height="64" viewBox="0 0 64 64" fill="none" xmlns="http://www.w3.org/2000/svg">
<rect width="64" height="64" rx="12" fill="white"/>
<g clip-path="url(#clip0_323_5894)">
<path d="M36.4669 23.6144L33.2301 21.7104C32.6082 21.4064 31.8907 21.4064 31.2688 21.7104L28.032 23.6144C27.3305 24.0304 27.3305 24.7024 28.032 25.1024L31.2688 27.0224C31.8747 27.3424 32.6082 27.3424 33.2301 27.0224L36.4669 25.1024C36.8814 24.9584 37.1047 24.5104 36.9612 24.1104C36.8814 23.8864 36.706 23.6944 36.4669 23.6304V23.6144Z" fill="#4231C8"/>
<path d="M42.1429 25.4544L33.2281 30.72C32.6222 31.04 31.8887 31.04 31.2669 30.72L25.6049 27.392C24.9033 26.96 24.3133 27.296 24.3133 28.112V38.1936C24.3771 38.6416 24.0742 39.0576 23.6277 39.1216C23.4204 39.1536 23.1972 39.1056 23.0218 38.9616L22.0651 38.4656C21.4751 38.1136 21.0925 37.4736 21.0606 36.7856V25.8384C21.1084 25.1504 21.4592 24.5104 22.0332 24.1424L31.235 18.7648C31.8568 18.4608 32.5744 18.4608 33.1962 18.7648L42.111 23.9344C42.5255 24.0464 42.7806 24.4624 42.685 24.8944C42.6212 25.1664 42.398 25.3904 42.1269 25.4544H42.1429ZM49.1123 21.2624L33.4513 12.2208C32.8295 11.9168 32.112 11.9168 31.4901 12.2208L15.8291 21.2624C15.2551 21.6464 14.8883 22.2704 14.8564 22.9584V41.0256C14.9043 41.7136 15.2551 42.3536 15.8291 42.7216L31.4901 51.7632C32.112 52.0672 32.8295 52.0672 33.4513 51.7632L49.1123 42.7216C49.6864 42.3376 50.0531 41.7136 50.085 41.0256V22.9584C50.0371 22.2704 49.6864 21.6304 49.1123 21.2624Z" fill="#4231C8"/>
</g>
<defs>
<clipPath id="clip0_323_5894">
<rect width="40" height="40" fill="white" transform="translate(12 12)"/>
</clipPath>
</defs>
</svg>
