<svg width="36" height="35" viewBox="0 0 36 35" fill="none" xmlns="http://www.w3.org/2000/svg">
<path fill-rule="evenodd" clip-rule="evenodd" d="M22.375 32.7343C22.0625 34.0468 20.9688 34.9061 19.5781 34.9061H16.4062C15.0312 34.9061 13.9375 34.0468 13.625 32.7343L13.0156 30.1249L12.6875 29.9999L10.4062 31.4061C9.25 32.1249 7.85938 31.9374 6.90625 30.953L4.70312 28.7655C3.71875 27.7655 3.54688 26.4061 4.26562 25.2655L5.67188 22.9999L5.5625 22.6874L2.95312 22.0624C1.65625 21.7499 0.796875 20.6561 0.796875 19.2811V16.2186C0.796875 14.8593 1.64062 13.7655 2.95312 13.4374L5.53125 12.7968L5.67188 12.4686L4.25 10.203C3.53125 9.078 3.70312 7.71863 4.6875 6.703L6.89062 4.49988C7.84375 3.53113 9.21875 3.34363 10.3906 4.06238L12.6562 5.453L13.0156 5.31238L13.625 2.703C13.9375 1.3905 15.0312 0.531128 16.4062 0.531128H19.5781C20.9688 0.531128 22.0625 1.3905 22.375 2.703L22.9688 5.31238L23.3281 5.453L25.6094 4.06238C26.7656 3.34363 28.1406 3.53113 29.1094 4.49988L31.2969 6.703C32.2812 7.71863 32.4688 9.078 31.7344 10.203L30.3281 12.4686L30.4531 12.7968L33.0312 13.4374C34.3438 13.7499 35.2031 14.8593 35.2031 16.2186V19.2811C35.2031 20.6561 34.3438 21.7343 33.0312 22.0624L30.4375 22.6874L30.3125 22.9999L31.7344 25.2655C32.4531 26.4061 32.2812 27.7655 31.2969 28.7655L29.0938 30.953C28.125 31.9374 26.75 32.1249 25.5938 31.4061L23.3125 29.9999L22.9688 30.1249L22.375 32.7343ZM16.9219 31.7031H19.0781C19.3438 31.7031 19.4531 31.5937 19.5 31.3594L20.4219 27.5469C21.5156 27.2969 22.4219 26.9062 23.2812 26.3594L26.625 28.4062C26.8125 28.5312 27 28.5156 27.1875 28.3437L28.6719 26.8437C28.8594 26.6719 28.8594 26.4844 28.7344 26.2969L26.6719 22.9531C27.1719 22.1406 27.5938 21.1406 27.8125 20.125L31.6562 19.2188C31.8906 19.1719 32 19.0469 32 18.7969V16.7031C32 16.4219 31.8906 16.3125 31.6562 16.2656L27.8281 15.3437C27.5938 14.2969 27.1406 13.2812 26.7031 12.5L28.75 9.17188C28.875 8.96875 28.875 8.78125 28.7031 8.60938L27.2031 7.125C27 6.95312 26.8438 6.9375 26.625 7.0625L23.2969 9.09375C22.4531 8.59375 21.4844 8.15625 20.4219 7.92187L19.5 4.07812C19.4531 3.84375 19.3438 3.73438 19.0781 3.73438H16.9219C16.6562 3.73438 16.5312 3.84375 16.5 4.07812L15.5781 7.89062C14.5312 8.15625 13.4219 8.60938 12.6875 9.09375L9.35938 7.04688C9.14062 6.92188 8.96875 6.9375 8.78125 7.125L7.28125 8.59375C7.09375 8.76562 7.10938 8.95312 7.23438 9.17188L9.29688 12.5C8.84375 13.2812 8.39062 14.2969 8.15625 15.3594L4.34375 16.2656C4.09375 16.3125 3.98438 16.4219 3.98438 16.7031V18.7969C3.98438 19.0469 4.10938 19.1719 4.34375 19.2188L8.17188 20.125C8.39062 21.1406 8.82812 22.125 9.3125 22.9531L7.25 26.2969C7.125 26.5 7.125 26.6875 7.29688 26.8594L8.79688 28.3594C8.98438 28.5312 9.17188 28.5469 9.35938 28.4219L12.7031 26.3594C13.5469 26.9062 14.5469 27.3125 15.5781 27.5469L16.5 31.3594C16.5312 31.5937 16.6562 31.7031 16.9219 31.7031ZM17.9922 23.6406C21.2266 23.6406 23.8828 20.9688 23.8828 17.7188C23.8828 14.4844 21.2266 11.8438 17.9922 11.8438C14.7422 11.8438 12.0703 14.4844 12.0703 17.7188C12.0703 20.9688 14.7422 23.6406 17.9922 23.6406ZM15.0234 17.7188C15.0234 19.375 16.3672 20.7188 18.0078 20.7188C19.6172 20.7188 20.9609 19.3594 20.9609 17.7188C20.9609 16.1094 19.6172 14.75 18.0078 14.75C16.3828 14.75 15.0234 16.0938 15.0234 17.7188Z" fill="white"/>
</svg>
