<svg width="64" height="64" viewBox="0 0 64 64" fill="none" xmlns="http://www.w3.org/2000/svg">
<rect width="64" height="64" rx="12" fill="white"/>
<g clip-path="url(#clip0_323_5875)">
<mask id="mask0_323_5875" style="mask-type:luminance" maskUnits="userSpaceOnUse" x="12" y="12" width="40" height="40">
<path d="M52 12H12V52H52V12Z" fill="white"/>
</mask>
<g mask="url(#mask0_323_5875)">
<path d="M20.3327 15.8333L51.3327 37L43.666 48.3333L12.666 27L20.3327 15.8333Z" fill="url(#paint0_linear_323_5875)"/>
<path d="M51.3331 37C48.6664 40.8333 39.6664 39.3333 31.1664 33.3333C22.4997 27.5 17.8331 19.6667 20.3331 15.8333C22.9997 12 31.9997 13.5 40.4997 19.5C49.1664 25.1667 53.8331 33.1667 51.3331 37Z" fill="url(#paint1_linear_323_5875)"/>
<path d="M43.6662 48.1667C40.9996 52 31.9996 50.5 23.4996 44.5C14.9996 38.5 10.1662 30.8333 12.8329 26.8333C15.4996 23 24.4996 24.5 32.9996 30.5C41.4996 36.5 46.1662 44.3333 43.6662 48.1667Z" fill="url(#paint2_linear_323_5875)"/>
<path d="M51.333 37L43.6663 48.3333C40.9997 52.1667 31.9997 50.5 23.4997 44.6667C21.833 43.5 20.333 42.3333 18.833 41C19.9997 40.8333 21.4997 40.1667 22.9997 38.5C25.6663 35.6667 26.9997 35 28.1663 35.1667C29.333 35.1667 30.6663 36.3333 32.833 39.1667C34.9997 42 37.9997 42.8333 39.833 41.3333C39.9997 41.1667 40.1663 41.1667 40.333 41C41.833 39.8333 42.333 39.3333 45.1663 34C45.833 32.6667 48.1663 30.5 51.333 31.5C52.1663 33.6667 52.1663 35.5 51.333 37Z" fill="#0E0F23"/>
<path fill-rule="evenodd" clip-rule="evenodd" d="M50.1666 36.3333C47.8333 39.6667 39.6666 38 31.8333 32.5C23.8333 27 19.1666 20 21.5 16.6667C23.8333 13.3333 32 15 39.8333 20.5C47.6666 26 52.3333 33 50.1666 36.3333ZM42.8333 31.3333C41.6666 33 37.6666 32.1667 33.6666 29.5C29.8333 26.8333 27.5 23.3333 28.6666 21.6667C29.8333 20 33.8333 20.8333 37.8333 23.5C41.6666 26.1667 44 29.6667 42.8333 31.3333Z" fill="white"/>
<path d="M19.6667 19.6667C19.6667 19.5 19.5 19.3333 19.3333 19.5C19.1667 19.6667 19 19.6667 19 19.8333C19.1667 20.3333 19.3333 20.6667 19.3333 21C19.3333 21.1667 19.5 21.3333 19.6667 21.1667C19.8333 21.1667 20 21 19.8333 20.8333C19.8333 20.5 19.8333 20.1667 19.6667 19.6667Z" fill="white"/>
<path d="M20.5 22.3333C20.5 22.1667 20.3333 22 20.1667 22.1667C20 22.3333 20 22.3333 20 22.5C21.8333 26.6667 25.6667 31.1667 30.6667 34.5C30.8333 34.6667 31 34.5 31.1667 34.5C31.3333 34.3333 31.1667 34.1667 31.1667 34C26 30.6667 22.3333 26.3333 20.5 22.3333Z" fill="white"/>
<path d="M40.6663 38.6667C40.4997 38.6667 40.333 38.6667 40.333 38.8333C40.333 39 40.333 39.1667 40.4997 39.1667C40.9997 39.3333 41.6663 39.5 42.1663 39.6667C42.333 39.6667 42.4997 39.6667 42.4997 39.5C42.4997 39.3333 42.4997 39.1667 42.333 39.1667C41.833 39 41.1663 38.8333 40.6663 38.6667Z" fill="white"/>
<path d="M43.6663 39.3333C43.4997 39.3333 43.333 39.5 43.333 39.6667C43.333 39.8333 43.4997 40 43.6663 40C44.9997 40.1667 46.4997 40.3333 47.6663 40.1667C47.833 40.1667 47.9997 40 47.9997 39.8333C47.9997 39.6667 47.833 39.5 47.6663 39.5C46.333 39.6667 44.9997 39.5 43.6663 39.3333Z" fill="white"/>
</g>
</g>
<defs>
<linearGradient id="paint0_linear_323_5875" x1="26.4063" y1="12.8238" x2="32.554" y2="33.9342" gradientUnits="userSpaceOnUse">
<stop stop-color="#03B8FF"/>
<stop offset="1" stop-color="#FA52A0"/>
</linearGradient>
<linearGradient id="paint1_linear_323_5875" x1="31.4694" y1="11.3493" x2="37.6172" y2="32.4598" gradientUnits="userSpaceOnUse">
<stop stop-color="#03B8FF"/>
<stop offset="1" stop-color="#FA52A0"/>
</linearGradient>
<linearGradient id="paint2_linear_323_5875" x1="21.3596" y1="14.2935" x2="27.5074" y2="35.404" gradientUnits="userSpaceOnUse">
<stop stop-color="#03B8FF"/>
<stop offset="1" stop-color="#FA52A0"/>
</linearGradient>
<clipPath id="clip0_323_5875">
<rect width="40" height="40" fill="white" transform="translate(12 12)"/>
</clipPath>
</defs>
</svg>
