<svg width="34" height="36" viewBox="0 0 34 36" fill="none" xmlns="http://www.w3.org/2000/svg">
<path fill-rule="evenodd" clip-rule="evenodd" d="M19.2344 20.0001C18.3594 20.5001 17.7031 20.7657 17.0156 20.7657C16.3125 20.7657 15.6562 20.5001 14.7812 20.0001L2.70312 13.0001C1.32812 12.1876 0.6875 11.4844 0.6875 10.3907C0.6875 9.29694 1.32812 8.59381 2.70312 7.78131L14.7812 0.781311C15.6562 0.281311 16.3125 0.031311 17.0156 0.031311C17.7031 0.031311 18.3594 0.281311 19.2344 0.781311L31.3281 7.78131C32.6875 8.59381 33.3281 9.29694 33.3281 10.3907C33.3281 11.4844 32.6875 12.1876 31.3281 13.0001L19.2344 20.0001ZM16.3906 16.9063C16.625 17.0313 16.7969 17.0938 17 17.0938C17.1875 17.0938 17.3594 17.0313 17.5938 16.9063L28.7969 10.5469C28.8594 10.5001 28.8906 10.4688 28.8906 10.3907C28.8906 10.3282 28.8594 10.2813 28.7969 10.2501L17.5938 3.89069C17.3594 3.75006 17.1875 3.68756 17 3.68756C16.7969 3.68756 16.625 3.75006 16.3906 3.89069L5.1875 10.2501C5.125 10.2813 5.09375 10.3282 5.09375 10.3907C5.09375 10.4688 5.125 10.5001 5.1875 10.5469L16.3906 16.9063ZM17.0156 28.5313C17.6562 28.5313 18.2344 28.2345 19.0312 27.7657L31.9688 20.1563C32.8594 19.6407 33.3438 18.9532 33.3438 18.1251C33.3438 17.297 32.8281 16.6407 32.2031 16.2501L18.1094 24.422C17.6719 24.6876 17.3438 24.8438 17.0156 24.8438C16.6719 24.8438 16.3438 24.6876 15.9062 24.422L1.8125 16.2501C1.20312 16.6407 0.6875 17.297 0.6875 18.1251C0.6875 18.9532 1.17188 19.6407 2.04688 20.1563L14.9844 27.7657C15.7812 28.2345 16.3594 28.5313 17.0156 28.5313ZM19.0312 35.1251C18.2344 35.5938 17.6562 35.8907 17.0156 35.8907C16.3594 35.8907 15.7812 35.5938 14.9844 35.1251L2.04688 27.5313C1.17188 27.0157 0.6875 26.3126 0.6875 25.4845C0.6875 24.6563 1.20312 24.0001 1.8125 23.6095L15.9062 31.797C16.3438 32.047 16.6719 32.2032 17.0156 32.2032C17.3438 32.2032 17.6719 32.047 18.1094 31.797L32.2031 23.6095C32.8281 24.0001 33.3438 24.6563 33.3438 25.4845C33.3438 26.3126 32.8438 27.0157 31.9688 27.5313L19.0312 35.1251Z" fill="white"/>
</svg>
