<svg width="34" height="35" viewBox="0 0 34 35" fill="none" xmlns="http://www.w3.org/2000/svg">
<path fill-rule="evenodd" clip-rule="evenodd" d="M20.3828 34.328C21.6484 34.328 22.5234 33.3436 23.1016 31.8436L33.4922 4.67175C33.7422 3.99988 33.8828 3.40613 33.8828 2.8905C33.8828 1.68738 33.1328 0.937378 31.9297 0.937378C31.4141 0.937378 30.8047 1.078 30.1328 1.328L2.88281 11.7499C1.50781 12.2811 0.492188 13.1561 0.492188 14.4374C0.492188 15.9686 1.61719 16.6093 3.17969 17.078L14.4453 20.3749L17.7266 31.5311C18.1953 33.1561 18.8359 34.328 20.3828 34.328ZM15.5078 17.1094L6.63281 14.3906C6.42969 14.3281 6.35156 14.2656 6.35156 14.1563C6.35156 14.0625 6.41406 13.9688 6.60156 13.9063L23.1641 7.53125C24.2984 7.09011 25.4125 6.57779 26.6456 6.01071L26.6456 6.0107C26.9412 5.87479 27.2435 5.73573 27.5547 5.59375C26.3672 6.5625 24.9141 7.75 23.8984 8.75L15.5078 17.1094ZM20.4375 28.1875C20.5 28.3906 20.5625 28.4844 20.6719 28.4844C20.7812 28.4844 20.8438 28.3906 20.9062 28.2188L27.2969 11.6563C27.7256 10.5416 28.2215 9.45585 28.7695 8.25585C28.9206 7.92504 29.0757 7.58554 29.2344 7.23438C28.2969 8.42188 27.0469 9.9375 26.0781 10.9219L17.7188 19.3125L20.4375 28.1875Z" fill="white"/>
</svg>
