<svg width="30" height="26" viewBox="0 0 30 26" fill="none" xmlns="http://www.w3.org/2000/svg">
<path d="M9.42098 25.189C20.737 25.189 26.929 15.805 26.929 7.68101C26.929 7.41701 26.929 7.15301 26.917 6.88901C28.117 6.02501 29.161 4.93301 29.989 3.69701C28.885 4.18901 27.697 4.51301 26.449 4.66901C27.721 3.91301 28.693 2.70101 29.161 1.26101C27.973 1.96901 26.653 2.47301 25.249 2.74901C24.121 1.54901 22.525 0.805008 20.761 0.805008C17.365 0.805008 14.605 3.56501 14.605 6.96101C14.605 7.44101 14.665 7.90901 14.761 8.36501C9.64898 8.11301 5.11298 5.65301 2.07698 1.93301C1.54898 2.84501 1.24898 3.90101 1.24898 5.02901C1.24898 7.16501 2.34098 9.04901 3.98498 10.153C2.97698 10.117 2.02898 9.84101 1.20098 9.38501C1.20098 9.40901 1.20098 9.43301 1.20098 9.46901C1.20098 12.445 3.32498 14.941 6.13298 15.505C5.61698 15.649 5.07698 15.721 4.51298 15.721C4.11698 15.721 3.73298 15.685 3.36098 15.613C4.14098 18.061 6.42098 19.837 9.10898 19.885C6.99698 21.541 4.34498 22.525 1.46498 22.525C0.972977 22.525 0.480977 22.501 0.000976562 22.441C2.71298 24.169 5.95298 25.189 9.42098 25.189Z" fill="white"/>
</svg>
