<svg width="24" height="24" viewBox="0 0 24 24" fill="none" xmlns="http://www.w3.org/2000/svg">
<circle cx="12" cy="12.0002" r="12" fill="url(#paint0_linear_669_655)"/>
<path d="M10.1196 17.8761C10.5591 17.8761 10.9033 17.7003 11.145 17.3414L18.0005 6.76523C18.1763 6.50156 18.2495 6.25986 18.2495 6.03281C18.2495 5.43222 17.8101 5.00009 17.1948 5.00009C16.77 5.00009 16.5137 5.14658 16.2573 5.55673L10.0903 15.3126L6.94092 11.3429C6.69189 11.0426 6.43555 10.9034 6.06934 10.9034C5.44678 10.9034 5 11.3429 5 11.9508C5 12.2144 5.08789 12.4635 5.31494 12.7271L9.10156 17.378C9.38721 17.7223 9.70215 17.8761 10.1196 17.8761Z" fill="white"/>
<defs>
<linearGradient id="paint0_linear_669_655" x1="-12" y1="12.0002" x2="12" y2="36.0002" gradientUnits="userSpaceOnUse">
<stop stop-color="#FF00AA"/>
<stop offset="1" stop-color="#F54562"/>
</linearGradient>
</defs>
</svg>
