<svg width="1" height="1" viewBox="0 0 1 1" fill="none" xmlns="http://www.w3.org/2000/svg">
<g id="check">
<path id="shape" d="M0.00988245 0.0174571C0.0103116 0.0174571 0.0106478 0.0172854 0.0108838 0.016935L0.0175786 0.00660667C0.0177503 0.00634918 0.0178218 0.00611314 0.0178218 0.00589141C0.0178218 0.0053049 0.0173926 0.0048829 0.0167918 0.0048829C0.016377 0.0048829 0.0161266 0.00502595 0.0158763 0.0054265L0.00985384 0.0149537L0.00677824 0.011077C0.00653505 0.0107838 0.00628471 0.0106479 0.00592709 0.0106479C0.00531912 0.0106479 0.00488281 0.011077 0.00488281 0.0116707C0.00488281 0.0119282 0.00496864 0.0121714 0.00519037 0.0124288L0.00888824 0.0169707C0.00916719 0.0173069 0.00947475 0.0174571 0.00988245 0.0174571Z" fill="white"/>
</g>
</svg>
