<svg width="1" height="1" viewBox="0 0 1 1" fill="none" xmlns="http://www.w3.org/2000/svg">
<g id="discord">
<path id="shape" fill-rule="evenodd" clip-rule="evenodd" d="M0.0184872 0.00551141C0.0172423 0.00494022 0.0159074 0.00451939 0.0145116 0.00427836C0.0144862 0.00427371 0.0144608 0.00428533 0.0144477 0.00430858C0.0142761 0.00461393 0.0140859 0.00501229 0.0139527 0.00532539C0.0124515 0.00510065 0.010958 0.00510065 0.00948757 0.00532539C0.00935437 0.00500533 0.00915729 0.00461393 0.00898484 0.00430858C0.00897175 0.00428611 0.00894636 0.00427448 0.00892094 0.00427836C0.00752597 0.00451862 0.00619105 0.00493945 0.00494542 0.00551141C0.00493464 0.00551606 0.0049254 0.00552382 0.00491926 0.00553388C0.0023872 0.00931673 0.00169356 0.0130066 0.00203384 0.0166507C0.00203538 0.0166685 0.00204539 0.0166856 0.00205924 0.0166964C0.00372982 0.0179233 0.00534807 0.0186681 0.00693626 0.0191617C0.00696168 0.0191695 0.00698861 0.0191602 0.00700479 0.0191393C0.00738047 0.0186262 0.00771537 0.0180853 0.0080025 0.0175164C0.00801945 0.0174831 0.00800327 0.0174435 0.00796864 0.0174304C0.00743745 0.0172289 0.00693164 0.0169832 0.00644509 0.0167042C0.00640661 0.0166817 0.00640353 0.0166267 0.00643893 0.0166003C0.00654132 0.0165236 0.00664373 0.0164438 0.0067415 0.0163632C0.00675919 0.0163484 0.00678384 0.0163453 0.00680463 0.0163546C0.010001 0.017814 0.0134615 0.017814 0.0166202 0.0163546C0.016641 0.0163446 0.0166657 0.0163477 0.0166841 0.0163624C0.0167819 0.016443 0.0168843 0.0165236 0.0169875 0.0166003C0.0170229 0.0166267 0.0170206 0.0166817 0.0169821 0.0167042C0.0164955 0.0169886 0.0159897 0.0172289 0.0154578 0.0174296C0.0154231 0.0174428 0.0154077 0.0174831 0.0154247 0.0175164C0.015718 0.0180845 0.0160529 0.0186254 0.0164216 0.0191385C0.016437 0.0191602 0.0164647 0.0191695 0.0164902 0.0191617C0.018086 0.0186681 0.0197043 0.0179233 0.0213749 0.0166964C0.0213895 0.0166856 0.0213987 0.0166693 0.0214003 0.0166515C0.0218075 0.0124385 0.0207182 0.00877888 0.0185125 0.00553465C0.0185072 0.00552382 0.0184979 0.00551606 0.0184872 0.00551141ZM0.00847984 0.0144318C0.0075175 0.0144318 0.00672455 0.0135483 0.00672455 0.0124633C0.00672455 0.0113783 0.00750212 0.0104948 0.00847984 0.0104948C0.00946523 0.0104948 0.0102505 0.011386 0.0102351 0.0124633C0.0102351 0.0135483 0.00945753 0.0144318 0.00847984 0.0144318ZM0.0132144 0.0124633C0.0132144 0.0135483 0.0140074 0.0144318 0.0149697 0.0144318C0.0159551 0.0144318 0.016725 0.0135483 0.016725 0.0124633C0.0167403 0.011386 0.0159551 0.0104948 0.0149697 0.0104948C0.013992 0.0104948 0.0132144 0.0113783 0.0132144 0.0124633Z" fill="black"/>
</g>
</svg>
