<svg width="36" height="36" viewBox="0 0 36 36" fill="none" xmlns="http://www.w3.org/2000/svg">
<path fill-rule="evenodd" clip-rule="evenodd" d="M28.3963 8.46549C26.4842 7.58814 24.4337 6.94175 22.2899 6.57153C22.2508 6.56438 22.2118 6.58224 22.1917 6.61795C21.928 7.08697 21.6359 7.69885 21.4314 8.17977C19.1255 7.83456 16.8315 7.83456 14.5729 8.17977C14.3683 7.68816 14.0656 7.08697 13.8007 6.61795C13.7806 6.58343 13.7416 6.56558 13.7026 6.57153C11.5599 6.94056 9.50945 7.58696 7.59617 8.46549C7.57961 8.47263 7.56541 8.48455 7.55599 8.50001C3.66674 14.3105 2.60131 19.9781 3.12398 25.5755C3.12634 25.6028 3.14171 25.629 3.163 25.6457C5.72901 27.5301 8.21463 28.6741 10.6541 29.4324C10.6931 29.4443 10.7345 29.43 10.7594 29.3979C11.3364 28.6099 11.8508 27.7789 12.2918 26.9051C12.3179 26.854 12.293 26.7933 12.2398 26.773C11.4239 26.4635 10.647 26.0861 9.89966 25.6576C9.84055 25.6231 9.83582 25.5385 9.8902 25.4981C10.0475 25.3802 10.2048 25.2576 10.3549 25.1338C10.3821 25.1112 10.42 25.1064 10.4519 25.1207C15.3616 27.3623 20.6769 27.3623 25.5287 25.1207C25.5606 25.1052 25.5985 25.11 25.6268 25.1326C25.7771 25.2564 25.9343 25.3802 26.0928 25.4981C26.1472 25.5385 26.1436 25.6231 26.0845 25.6576C25.3372 26.0945 24.5602 26.4635 23.7431 26.7718C23.6899 26.7921 23.6663 26.854 23.6923 26.9051C24.1428 27.7777 24.6572 28.6086 25.2236 29.3967C25.2473 29.43 25.2898 29.4443 25.3289 29.4324C27.7802 28.6741 30.2658 27.5301 32.8318 25.6457C32.8543 25.629 32.8685 25.604 32.8708 25.5766C33.4963 19.1055 31.8231 13.4843 28.4353 8.5012C28.427 8.48455 28.4128 8.47263 28.3963 8.46549ZM13.0241 22.1672C11.546 22.1672 10.328 20.8102 10.328 19.1436C10.328 17.477 11.5224 16.1199 13.0241 16.1199C14.5377 16.1199 15.7439 17.4889 15.7202 19.1436C15.7202 20.8102 14.5259 22.1672 13.0241 22.1672ZM20.2988 19.1436C20.2988 20.8102 21.5168 22.1672 22.9949 22.1672C24.5085 22.1672 25.691 20.8102 25.691 19.1436C25.7146 17.4889 24.5085 16.1199 22.9949 16.1199C21.4931 16.1199 20.2988 17.477 20.2988 19.1436Z" fill="white"/>
</svg>
