<svg width="36" height="36" viewBox="0 0 36 36" fill="none" xmlns="http://www.w3.org/2000/svg">
<path fill-rule="evenodd" clip-rule="evenodd" d="M17.9941 30.7969C24.709 30.7969 30.2402 25.2539 30.2402 18.5391C30.2402 11.8242 24.6973 6.29297 17.9941 6.29297C11.2793 6.29297 5.74805 11.8242 5.74805 18.5391C5.74805 25.2539 11.2793 30.7969 17.9941 30.7969ZM12.9785 12.3515C12.1699 12.0937 11.4785 11.7655 10.916 11.3788C12.0645 10.2421 13.4941 9.36319 15.0762 8.88272C14.2324 9.71475 13.5176 10.8983 12.9785 12.3515ZM20.9355 8.88272C21.7793 9.71475 22.4941 10.9101 23.0332 12.3515C23.8301 12.0937 24.5332 11.7655 25.084 11.3905C23.9355 10.2421 22.5176 9.37491 20.9355 8.88272ZM17.1445 13.0195C16.2773 12.9844 15.457 12.9023 14.6953 12.7617C15.3281 11.0977 16.1953 9.85547 17.1445 9.38672V13.0195ZM18.8613 9.38672V13.0195C19.7285 12.9844 20.5488 12.9023 21.2988 12.7617C20.6777 11.0977 19.8105 9.85547 18.8613 9.38672ZM11.959 17.672H7.92773C8.0918 15.8204 8.75977 14.1095 9.80273 12.6681C10.4941 13.1954 11.4082 13.629 12.4746 13.9688C12.1934 15.1056 12.0176 16.3477 11.959 17.672ZM24.041 17.6718H28.0723C27.9082 15.8319 27.2402 14.1093 26.209 12.6796C25.5176 13.1952 24.6035 13.6288 23.5371 13.9687C23.8066 15.1054 23.9941 16.3476 24.041 17.6718ZM22.2715 17.6718H18.8613V14.7421C19.8926 14.6952 20.8887 14.5898 21.8027 14.4023C22.0488 15.4218 22.2129 16.5233 22.2715 17.6718ZM13.7285 17.6718H17.1504V14.7421C16.1191 14.6952 15.123 14.5898 14.1973 14.4023C13.9512 15.4218 13.7871 16.5233 13.7285 17.6718ZM9.82617 24.4452C8.77148 22.9921 8.0918 21.2694 7.92773 19.3944H11.959C12.0176 20.7421 12.1934 22.0077 12.4746 23.1562C11.4199 23.496 10.5176 23.9296 9.82617 24.4452ZM13.7285 19.3944C13.7871 20.5663 13.9512 21.6913 14.209 22.7226C15.123 22.5468 16.1191 22.4296 17.1504 22.3944V19.3944H13.7285ZM21.791 22.7226C20.877 22.5468 19.8926 22.4296 18.8613 22.3944V19.3944H22.2715C22.2246 20.5663 22.0488 21.6913 21.791 22.7226ZM23.5195 23.1562C24.5859 23.496 25.4883 23.9296 26.1797 24.4452C27.2227 22.9921 27.9141 21.2694 28.0664 19.3944H24.0352C23.9883 20.7421 23.8125 22.0077 23.5195 23.1562ZM17.1387 27.7148C16.1895 27.2344 15.334 26.0039 14.7129 24.3633C15.4629 24.2344 16.2715 24.1523 17.1387 24.1172V27.7148ZM18.8613 24.1172V27.7148C19.7988 27.2344 20.666 26.0039 21.2871 24.3633C20.5254 24.2344 19.7168 24.1523 18.8613 24.1172ZM15.0586 28.1953C13.4883 27.7148 12.082 26.8594 10.9336 25.7344C11.4961 25.3477 12.1875 25.0312 12.9844 24.7852C13.5117 26.2031 14.2266 27.375 15.0586 28.1953ZM23.0273 24.7852C22.4883 26.2031 21.7852 27.375 20.9531 28.1953C22.5117 27.7148 23.918 26.8594 25.0664 25.7344C24.5156 25.3477 23.8242 25.0312 23.0273 24.7852Z" fill="white"/>
</svg>
