<svg width="12" height="13" viewBox="0 0 12 13" fill="none" xmlns="http://www.w3.org/2000/svg">
<path fill-rule="evenodd" clip-rule="evenodd" d="M10.9775 1.64941C10.3428 1.02075 9.47607 0.880371 8.31641 0.880371H3.67163C2.52417 0.880371 1.65137 1.02075 1.02271 1.64941C0.394043 2.28418 0.259766 3.13867 0.259766 4.28613V8.90039C0.259766 10.0662 0.394043 10.9268 1.02271 11.5554C1.65747 12.1841 2.51807 12.3245 3.68384 12.3245H8.31641C9.47607 12.3245 10.3428 12.1841 10.9775 11.5554C11.6062 10.9207 11.7405 10.0662 11.7405 8.90039V4.29834C11.7405 3.13257 11.6062 2.27808 10.9775 1.64941ZM10.3793 4.13354V9.07129C10.3793 9.71216 10.2938 10.2371 9.98254 10.5605C9.66516 10.8779 9.12195 10.9634 8.48718 10.9634H3.51282C2.87805 10.9634 2.33484 10.8718 2.01746 10.5605C1.70007 10.2371 1.62073 9.71216 1.62073 9.07129V4.14575C1.62073 3.49268 1.70007 2.96167 2.01746 2.64429C2.33484 2.3269 2.87805 2.24146 3.52502 2.24146H8.48718C9.12195 2.24146 9.66516 2.3269 9.98254 2.64429C10.2999 2.96167 10.3793 3.49268 10.3793 4.13354ZM8.43835 7.64307C8.43835 7.99707 8.23083 8.24121 7.90125 8.24121C7.56555 8.24121 7.35803 8.00928 7.35803 7.64307V6.73364L7.44348 5.90967L6.66223 6.77026L4.61755 8.81494C4.48328 8.94312 4.33679 9.00415 4.15979 9.00415C3.81799 9.00415 3.56165 8.77222 3.56165 8.41211C3.56165 8.25342 3.63489 8.09473 3.75085 7.97876L5.80774 5.91577L6.68054 5.13452L5.89319 5.22607H4.92273C4.56262 5.22607 4.32458 5.01855 4.32458 4.68896C4.32458 4.35327 4.56262 4.14575 4.92273 4.14575H7.74866C8.1759 4.14575 8.43835 4.37158 8.43835 4.82935V7.64307Z" fill="white"/>
</svg>
