<svg width="20" height="16" viewBox="0 0 20 16" fill="none" xmlns="http://www.w3.org/2000/svg">
<path fill-rule="evenodd" clip-rule="evenodd" d="M16.9308 1.64368C15.6561 1.05878 14.2892 0.627851 12.8599 0.38104C12.8339 0.376277 12.8079 0.388181 12.7945 0.411989C12.6187 0.724668 12.4239 1.13258 12.2876 1.4532C10.7503 1.22306 9.22099 1.22306 7.71527 1.4532C7.57887 1.12546 7.37707 0.724668 7.20048 0.411989C7.18707 0.388975 7.16107 0.377071 7.13504 0.38104C5.70659 0.627063 4.33963 1.05799 3.06411 1.64368C3.05307 1.64844 3.04361 1.65639 3.03732 1.6667C0.444493 5.54033 -0.265792 9.31875 0.0826501 13.0503C0.0842267 13.0686 0.0944749 13.086 0.108665 13.0971C1.81934 14.3534 3.47642 15.1161 5.10273 15.6216C5.12876 15.6296 5.15634 15.62 5.1729 15.5986C5.55761 15.0733 5.90054 14.5193 6.19456 13.9368C6.21192 13.9027 6.19535 13.8622 6.15989 13.8487C5.61594 13.6424 5.098 13.3908 4.59977 13.1051C4.56037 13.0821 4.55721 13.0257 4.59346 12.9987C4.69831 12.9202 4.80318 12.8384 4.9033 12.7559C4.92141 12.7408 4.94665 12.7376 4.96794 12.7471C8.24107 14.2415 11.7846 14.2415 15.0191 12.7471C15.0404 12.7368 15.0657 12.74 15.0846 12.7551C15.1847 12.8376 15.2895 12.9202 15.3952 12.9987C15.4314 13.0257 15.4291 13.0821 15.3897 13.1051C14.8914 13.3963 14.3735 13.6424 13.8288 13.8479C13.7933 13.8614 13.7775 13.9027 13.7949 13.9368C14.0952 14.5185 14.4381 15.0724 14.8157 15.5978C14.8315 15.62 14.8599 15.6296 14.8859 15.6216C16.5201 15.1161 18.1772 14.3534 19.8879 13.0971C19.9028 13.086 19.9123 13.0694 19.9139 13.0511C20.3309 8.73701 19.2154 4.98957 16.9568 1.66749C16.9513 1.65639 16.9419 1.64844 16.9308 1.64368ZM6.68335 10.7782C5.69792 10.7782 4.88594 9.87349 4.88594 8.76241C4.88594 7.65134 5.68217 6.74664 6.68335 6.74664C7.69239 6.74664 8.49651 7.65929 8.48073 8.76241C8.48073 9.87349 7.68451 10.7782 6.68335 10.7782ZM11.5316 8.76241C11.5316 9.87349 12.3435 10.7782 13.329 10.7782C14.338 10.7782 15.1264 9.87349 15.1264 8.76241C15.1421 7.65929 14.338 6.74664 13.329 6.74664C12.3278 6.74664 11.5316 7.65134 11.5316 8.76241Z" fill="black"/>
</svg>
