<svg width="20" height="20" viewBox="0 0 20 20" fill="none" xmlns="http://www.w3.org/2000/svg">
<path d="M5.877 19.94C5.04767 19.9229 4.22716 19.766 3.45 19.476C2.78265 19.2249 2.17822 18.8311 1.679 18.322C1.16969 17.8226 0.775819 17.2178 0.525 16.55C0.235063 15.7728 0.0778715 14.9523 0.06 14.123C0.012 13.052 0 12.7 0 10C0 7.3 0.012 6.948 0.06 5.877C0.0781739 5.04769 0.235356 4.2273 0.525 3.45C0.776064 2.78265 1.16992 2.17822 1.679 1.679C2.17822 1.16992 2.78265 0.776064 3.45 0.525C4.2273 0.235356 5.04769 0.0781739 5.877 0.06C6.948 0.012 7.3 0 10 0C12.7 0 13.052 0.012 14.123 0.06C14.9523 0.0778715 15.7728 0.235063 16.55 0.525C17.2174 0.775948 17.8219 1.16982 18.321 1.679C18.8301 2.17822 19.2239 2.78265 19.475 3.45C19.765 4.22716 19.9219 5.04767 19.939 5.877C19.988 6.948 20 7.3 20 10C20 12.7 19.988 13.052 19.94 14.123C19.923 14.9523 19.7662 15.7729 19.476 16.55C19.2188 17.2143 18.8258 17.8175 18.3222 18.3212C17.8185 18.8248 17.2153 19.2178 16.551 19.475C15.7739 19.7652 14.9533 19.922 14.124 19.939C13.052 19.988 12.7 20 10 20C7.3 20 6.948 19.988 5.877 19.94ZM5.959 1.86C5.32443 1.866 4.69561 1.98101 4.1 2.2C3.66576 2.3605 3.2731 2.61646 2.951 2.949C2.61749 3.27147 2.36082 3.66485 2.2 4.1C1.98101 4.69561 1.866 5.32443 1.86 5.959C1.812 7.007 1.8 7.322 1.8 10C1.8 12.678 1.81 12.993 1.859 14.041C1.86501 14.6757 1.98036 15.3045 2.2 15.9C2.36061 16.3345 2.61655 16.7274 2.949 17.05C3.27175 17.3829 3.66507 17.6392 4.1 17.8C4.69474 18.0201 5.32287 18.1365 5.957 18.144C7.005 18.193 7.32 18.203 9.998 18.203C12.676 18.203 12.992 18.193 14.039 18.144C14.6745 18.1373 15.3041 18.0209 15.9 17.8C16.332 17.6338 16.7243 17.3789 17.0516 17.0516C17.3789 16.7243 17.6338 16.332 17.8 15.9C18.0204 15.3053 18.1368 14.6772 18.144 14.043C18.193 12.995 18.203 12.68 18.203 10.002C18.203 7.324 18.193 7.009 18.144 5.961C18.1369 5.32553 18.0206 4.69601 17.8 4.1C17.6395 3.66597 17.384 3.27337 17.052 2.951C16.7291 2.61758 16.3354 2.36093 15.9 2.2C15.3053 1.97957 14.6772 1.8632 14.043 1.856C12.993 1.812 12.678 1.8 10 1.8C7.322 1.8 7.007 1.812 5.959 1.86ZM4.865 10C4.8648 8.98435 5.1658 7.99145 5.72992 7.14687C6.29404 6.3023 7.09595 5.64397 8.03423 5.25517C8.97251 4.86636 10.005 4.76452 11.0012 4.96255C11.9973 5.16057 12.9124 5.64955 13.6306 6.36765C14.3489 7.08576 14.838 8.00072 15.0363 8.99684C15.2345 9.99296 15.1328 11.0255 14.7442 11.9638C14.3556 12.9022 13.6974 13.7042 12.853 14.2685C12.0085 14.8328 11.0156 15.134 10 15.134C8.63885 15.1321 7.33397 14.5907 6.3714 13.6283C5.40883 12.6659 4.86712 11.3611 4.865 10ZM6.665 10C6.6652 10.6591 6.86079 11.3033 7.22706 11.8512C7.59333 12.3992 8.11382 12.8262 8.72275 13.0784C9.33167 13.3306 10.0017 13.3965 10.6481 13.268C11.2945 13.1394 11.8883 12.8221 12.3544 12.3561C12.8205 11.8902 13.138 11.2965 13.2668 10.6501C13.3955 10.0037 13.3298 9.33367 13.0778 8.72467C12.8258 8.11567 12.3989 7.59505 11.8511 7.22861C11.3032 6.86218 10.6591 6.6664 10 6.666C9.11601 6.66679 8.26846 7.01831 7.64338 7.64338C7.01831 8.26846 6.66679 9.11601 6.666 10H6.665ZM14.137 4.662C14.137 4.42466 14.2074 4.19265 14.3392 3.99532C14.4711 3.79798 14.6585 3.64417 14.8778 3.55334C15.0971 3.46252 15.3383 3.43876 15.5711 3.48506C15.8039 3.53136 16.0177 3.64565 16.1855 3.81347C16.3534 3.98129 16.4676 4.19511 16.5139 4.42789C16.5602 4.66067 16.5365 4.90195 16.4457 5.12122C16.3548 5.34049 16.201 5.52791 16.0037 5.65976C15.8063 5.79162 15.5743 5.862 15.337 5.862C15.0189 5.86173 14.7139 5.73519 14.4891 5.51017C14.2643 5.28516 14.138 4.98009 14.138 4.662H14.137Z" fill="black"/>
</svg>
