<svg width="36" height="36" viewBox="0 0 36 36" fill="none" xmlns="http://www.w3.org/2000/svg">
<path d="M12.421 30.189C23.737 30.189 29.929 20.805 29.929 12.681C29.929 12.417 29.929 12.153 29.917 11.889C31.117 11.025 32.161 9.93301 32.989 8.69701C31.885 9.18901 30.697 9.51301 29.449 9.66901C30.721 8.91301 31.693 7.70101 32.161 6.26101C30.973 6.96901 29.653 7.47301 28.249 7.74901C27.121 6.54901 25.525 5.80501 23.761 5.80501C20.365 5.80501 17.605 8.56501 17.605 11.961C17.605 12.441 17.665 12.909 17.761 13.365C12.649 13.113 8.11298 10.653 5.07698 6.93301C4.54898 7.84501 4.24898 8.90101 4.24898 10.029C4.24898 12.165 5.34098 14.049 6.98498 15.153C5.97698 15.117 5.02898 14.841 4.20098 14.385C4.20098 14.409 4.20098 14.433 4.20098 14.469C4.20098 17.445 6.32498 19.941 9.13298 20.505C8.61698 20.649 8.07698 20.721 7.51298 20.721C7.11698 20.721 6.73298 20.685 6.36098 20.613C7.14098 23.061 9.42098 24.837 12.109 24.885C9.99698 26.541 7.34498 27.525 4.46498 27.525C3.97298 27.525 3.48098 27.501 3.00098 27.441C5.71298 29.169 8.95298 30.189 12.421 30.189Z" fill="white"/>
</svg>
