<svg width="24" height="24" viewBox="0 0 24 24" fill="none" xmlns="http://www.w3.org/2000/svg">
<path d="M8.28 20.126C9.81546 20.1356 11.3375 19.8402 12.758 19.257C14.1784 18.6739 15.4689 17.8145 16.5547 16.7287C17.6404 15.643 18.4998 14.3524 19.083 12.932C19.6662 11.5116 19.9616 9.98951 19.952 8.45405C19.952 8.27805 19.952 8.10205 19.944 7.92605C20.7476 7.34393 21.4411 6.62334 21.992 5.79805C21.2416 6.12928 20.4463 6.34765 19.632 6.44605C20.4907 5.93174 21.1333 5.12287 21.44 4.17005C20.6341 4.648 19.7518 4.98357 18.832 5.16205C18.2698 4.56025 17.5394 4.14171 16.7359 3.96095C15.9324 3.78018 15.0932 3.84557 14.3274 4.1486C13.5616 4.45163 12.9048 4.97825 12.4426 5.65987C11.9804 6.34148 11.7342 7.1465 11.736 7.97005C11.7368 8.28467 11.7703 8.59836 11.836 8.90605C10.2057 8.82403 8.61077 8.40028 7.15473 7.66227C5.69869 6.92425 4.41401 5.88846 3.384 4.62205C2.86175 5.52653 2.70259 6.59564 2.93874 7.61303C3.1749 8.63041 3.78872 9.5201 4.656 10.102C4.00575 10.0793 3.36996 9.90388 2.8 9.59005V9.64605C2.80087 10.5928 3.12851 11.5103 3.72757 12.2434C4.32663 12.9766 5.16039 13.4805 6.088 13.67C5.48538 13.8336 4.85351 13.8582 4.24 13.742C4.50134 14.5575 5.01143 15.2706 5.69868 15.7814C6.38593 16.2921 7.21586 16.5749 8.072 16.59C6.61812 17.7332 4.82149 18.3532 2.972 18.35C2.64716 18.3514 2.32254 18.3327 2 18.294C3.87584 19.491 6.05481 20.1266 8.28 20.126Z" fill="black"/>
</svg>
