<svg width="86" height="17" viewBox="0 0 86 17" fill="none" xmlns="http://www.w3.org/2000/svg">
<g clip-path="url(#clip0_159_645)">
<path d="M0.399658 16.3112H6.96222C10.7961 16.3112 13.0061 15.3353 13.0061 11.9084C13.0061 9.97939 11.8334 8.93544 10.2548 8.41346C11.45 7.77797 12.2168 6.68863 12.2168 4.94113C12.2168 2.08158 10.2322 0.878754 6.66905 0.878754H0.399658V16.3112ZM6.62395 3.48866C8.08982 3.48866 9.21742 4.03334 9.21742 5.41772C9.21742 6.8021 8.18004 7.46025 6.73671 7.46025H3.44414V3.48866H6.62395ZM6.96222 9.59357C8.78895 9.59357 9.89398 10.2063 9.89398 11.7042C9.89398 13.0659 8.78895 13.7013 6.98477 13.7013H3.44414V9.59357H6.96222Z" fill="white"/>
<path d="M15.0451 16.3112H25.3287V13.5879H18.0896V0.878754H15.0451V16.3112Z" fill="white"/>
<path d="M33.6361 16.5381C37.9209 16.5381 41.0556 14.0871 41.0556 8.59496C41.0556 3.10283 37.9209 0.651794 33.6361 0.651794C29.3738 0.651794 26.2391 3.10283 26.2391 8.59496C26.2391 14.0871 29.3738 16.5381 33.6361 16.5381ZM29.3964 8.59496C29.3964 4.96381 31.2682 3.42056 33.6586 3.42056C36.0491 3.42056 37.8984 4.96381 37.8984 8.59496C37.8984 12.2262 36.0491 13.7467 33.6586 13.7467C31.2682 13.7467 29.3964 12.2262 29.3964 8.59496Z" fill="white"/>
<path d="M49.756 16.5381C53.3868 16.5381 56.1607 14.7226 56.747 10.7056H53.5221C53.071 12.7935 51.5601 13.7467 49.756 13.7467C47.3881 13.7467 45.5613 12.2262 45.5613 8.59496C45.5613 4.96381 47.3881 3.42056 49.756 3.42056C51.5601 3.42056 53.071 4.37375 53.5221 6.46166H56.747C56.1607 2.46738 53.3868 0.651794 49.756 0.651794C45.5163 0.651794 42.4041 3.10283 42.4041 8.59496C42.4041 14.0871 45.5163 16.5381 49.756 16.5381Z" fill="white"/>
<path d="M61.8497 16.3112V12.5439L63.7666 10.3198L68.5024 16.3112H72.3813L65.661 8.02764L71.7499 0.878754H67.8936L61.8497 8.23187V0.878754H58.8052V16.3112H61.8497Z" fill="white"/>
<path d="M79.0701 16.5381C83.3547 16.5381 85.385 15.1311 85.385 12.0219C85.385 5.98508 76.0484 8.66304 76.0484 5.14537C76.0484 3.85176 77.0629 3.2617 78.9127 3.2617C81.1679 3.2617 81.8213 4.46452 81.9572 5.64465H85.001C84.8889 2.76241 83.2872 0.651794 79.0256 0.651794C75.1012 0.651794 72.8911 2.30852 72.8911 5.25884C72.8911 11.6361 82.2275 9.13966 82.2275 12.0446C82.2275 13.3155 81.3483 13.9282 79.1377 13.9282C76.7023 13.9282 75.8228 12.7709 75.7552 11.4545H72.6205C72.7784 14.4275 74.3118 16.5381 79.0701 16.5381Z" fill="white"/>
</g>
<defs>
<clipPath id="clip0_159_645">
<rect width="86" height="17" fill="white"/>
</clipPath>
</defs>
</svg>
