<svg width="15" height="17" viewBox="0 0 15 17" fill="none" xmlns="http://www.w3.org/2000/svg">
<path fill-rule="evenodd" clip-rule="evenodd" d="M1.95703 15.3359C1.95703 15.8047 1.58203 16.1719 1.12109 16.1719C0.660156 16.1719 0.285156 15.7891 0.285156 15.3359V2.38281C0.285156 1.67188 0.613281 1.27344 1.18359 1.01563C1.84766 0.710938 2.44141 0.554688 3.59766 0.554688C5.01004 0.554688 6.23116 0.919274 7.44011 1.28022C8.62519 1.63405 9.79856 1.98438 11.1289 1.98438C11.8456 1.98438 12.3807 1.88056 12.8006 1.79907C13.0719 1.74644 13.2951 1.70313 13.4883 1.70313C14.082 1.70313 14.5117 2.09375 14.5117 2.67969V10.3359C14.5117 11.0703 14.1992 11.5547 13.6211 11.8203C13.0117 12.1094 12.3789 12.2734 11.1914 12.2734C9.82222 12.2734 8.64282 11.919 7.45844 11.5631C6.264 11.2042 5.0645 10.8438 3.66016 10.8438C2.84829 10.8438 2.27856 11.0186 2.01335 11.1C1.99273 11.1063 1.97394 11.1121 1.95703 11.1172V15.3359ZM7.72314 9.89336C8.85849 10.2344 9.95103 10.5625 11.1445 10.5625C12.0742 10.5625 12.6133 10.3125 12.7695 10.1094V3.49222C12.332 3.60941 11.7539 3.67972 11.0742 3.67972C9.65438 3.67972 8.42688 3.31123 7.22166 2.94943C6.05941 2.60053 4.91787 2.25784 3.64453 2.25784C2.71484 2.25784 2.18359 2.52347 2.01953 2.71878V9.3594C2.41016 9.21878 3.02734 9.14065 3.70703 9.14065C5.2171 9.14065 6.49517 9.52453 7.72314 9.89336Z" fill="#FF00AA"/>
</svg>
