<svg width="16" height="17" viewBox="0 0 16 17" fill="none" xmlns="http://www.w3.org/2000/svg">
<path fill-rule="evenodd" clip-rule="evenodd" d="M5.60156 4.35156C5.60156 8.375 8.1875 10.8672 12.3359 10.8672C13.2344 10.8672 14.1641 10.7031 14.7656 10.4531C14.9922 10.3594 15.1328 10.3359 15.2891 10.3359C15.6016 10.3359 15.9062 10.5859 15.9062 10.9766C15.9062 11.0938 15.875 11.2891 15.7734 11.5312C14.4922 14.4688 11.6953 16.2812 8.30469 16.2812C3.55469 16.2812 0.09375 12.8125 0.09375 8.0625C0.09375 4.75781 2.13281 1.70312 5.0625 0.515625C5.30469 0.421875 5.48438 0.390625 5.57812 0.390625C5.97656 0.390625 6.25 0.726562 6.25 1.05469C6.25 1.24219 6.21875 1.39062 6.08594 1.64844C5.79688 2.20312 5.60156 3.21875 5.60156 4.35156ZM4.53125 2.42188C2.71094 3.64062 1.59375 5.79688 1.59375 8.01562C1.59375 11.9297 4.44531 14.7891 8.35156 14.7891C10.6328 14.7891 12.7422 13.7266 13.8828 11.9688C13.3359 12.1641 12.7578 12.2422 12.0859 12.2422C7.16406 12.2422 4.20312 9.35156 4.20312 4.53125C4.20312 3.75781 4.32031 3.05469 4.53125 2.42188Z" fill="white"/>
</svg>
