<svg width="24" height="24" viewBox="0 0 24 24" fill="none" xmlns="http://www.w3.org/2000/svg">
<path fill-rule="evenodd" clip-rule="evenodd" d="M15.6941 7.91387C15.6941 10.1253 14.0501 11.9195 12.0055 11.9195C9.95262 11.9195 8.31697 10.1337 8.30862 7.92222C8.30028 5.76083 9.96931 4 12.0055 4C14.0417 4 15.6941 5.74414 15.6941 7.91387ZM9.98443 7.92232C9.98443 9.27424 10.9107 10.309 12.0123 10.309C13.1139 10.309 14.0318 9.25755 14.0318 7.91398C14.0318 6.61214 13.1139 5.61072 12.0123 5.61072C10.9107 5.61072 9.97609 6.62883 9.98443 7.92232ZM17.18 19.7056C18.6571 19.7056 19.3831 19.2216 19.3831 18.1868C19.3831 15.8084 16.4373 12.8375 12.006 12.8375C7.57474 12.8375 4.62891 15.8084 4.62891 18.1868C4.62891 19.2216 5.35493 19.7056 6.84037 19.7056H17.18ZM6.42188 17.8948C6.42188 18.0367 6.48864 18.0951 6.67223 18.0951H17.3206C17.5042 18.0951 17.571 18.0367 17.571 17.8948C17.571 16.6931 15.5515 14.4482 11.9964 14.4482C8.4414 14.4482 6.42188 16.6931 6.42188 17.8948Z" fill="#FF00AA"/>
</svg>
