<svg width="12" height="11" viewBox="0 0 12 11" fill="none" xmlns="http://www.w3.org/2000/svg">
<path d="M4.43284 10.8967C4.79906 10.8967 5.08594 10.7503 5.28736 10.4512L11.0004 1.63749C11.1469 1.41776 11.2079 1.21633 11.2079 1.02712C11.2079 0.52662 10.8417 0.166504 10.329 0.166504C9.97497 0.166504 9.76134 0.288577 9.54771 0.630382L4.40843 8.76046L1.78385 5.45228C1.57633 5.20203 1.3627 5.08606 1.05752 5.08606C0.538705 5.08606 0.166382 5.45228 0.166382 5.95888C0.166382 6.17861 0.239626 6.38614 0.428839 6.60587L3.58443 10.4817C3.82248 10.7686 4.08493 10.8967 4.43284 10.8967Z" fill="white"/>
</svg>
