<svg width="24" height="24" viewBox="0 0 24 24" fill="none" xmlns="http://www.w3.org/2000/svg">
<path fill-rule="evenodd" clip-rule="evenodd" d="M18.375 18.7188C17.5703 19.5234 16.4688 19.7109 14.9609 19.7109H9.03906C7.53125 19.7109 6.4375 19.5234 5.625 18.7188C4.8125 17.9141 4.64062 16.8203 4.64062 15.3047V9.41406C4.64062 7.92188 4.82031 6.82813 5.625 6.02344C6.42969 5.21875 7.53906 5.03125 9.02344 5.03125H14.9609C16.4688 5.03125 17.5625 5.21875 18.375 6.02344C19.1797 6.82813 19.3594 7.91406 19.3594 9.42969V15.3047C19.3594 16.8203 19.1797 17.9063 18.375 18.7188ZM8.83203 17.9219H15.1758C15.9961 17.9219 16.668 17.8047 17.0742 17.4063C17.4648 17.0079 17.5742 16.3438 17.5742 15.5235V9.21881C17.5742 8.39069 17.4648 7.73444 17.0742 7.336C16.668 6.93756 15.9961 6.82037 15.1758 6.82037H8.83984C8.01172 6.82037 7.33203 6.92975 6.93359 7.32819C6.54297 7.73444 6.43359 8.3985 6.43359 9.22662V15.5235C6.43359 16.3438 6.54297 17.0079 6.93359 17.4063C7.33984 17.8047 8.01172 17.9219 8.83203 17.9219Z" fill="#FF00AA"/>
</svg>
