<svg width="33" height="32" viewBox="0 0 33 32" fill="none" xmlns="http://www.w3.org/2000/svg">
<path d="M16.9922 31.9999C25.7654 31.9999 32.9922 24.7765 32.9922 16.0075C32.9922 7.23852 25.7501 -0.00012207 16.9922 -0.00012207C8.21898 -0.00012207 0.992188 7.23852 0.992188 16.0075C0.992188 24.7765 8.21898 31.9999 16.9922 31.9999ZM16.9922 28.4035C10.1175 28.4035 4.6056 22.8789 4.6056 16.0075C4.6056 9.13618 10.1022 3.59624 16.9922 3.59624C23.8668 3.59624 29.3941 9.13618 29.4094 16.0075C29.4094 22.8789 23.8668 28.4035 16.9922 28.4035ZM16.9922 24.4705C17.375 24.4705 17.6659 24.195 17.6659 23.7818V22.7871C20.2381 22.5728 22.1061 21.119 22.1061 18.7775C22.1061 16.6962 20.774 15.4872 18.1099 14.9822L17.6659 14.8904V11.4317C18.5386 11.6001 19.1663 12.1204 19.4419 12.9162C19.7175 13.4671 20.085 13.7579 20.6668 13.7579C21.3558 13.7579 21.8152 13.3294 21.8152 12.6866C21.8152 12.4877 21.7845 12.304 21.7233 12.1204C21.3099 10.6053 19.7788 9.47285 17.6659 9.2586V8.26387C17.6659 7.85066 17.375 7.57519 16.9922 7.57519C16.5941 7.57519 16.3185 7.85066 16.3185 8.26387V9.2586C13.8228 9.47285 12.0621 10.9573 12.0621 13.1458C12.0621 15.1658 13.3941 16.3289 15.9357 16.9105L16.3185 16.987V20.6292C15.1855 20.4762 14.5271 19.8794 14.2975 19.0683C14.0525 18.5173 13.6697 18.2113 13.0879 18.2113C12.3683 18.2113 11.9089 18.6704 11.9089 19.3437C11.9089 19.5274 11.9395 19.7263 12.0161 19.9253C12.4601 21.4403 14.0219 22.6034 16.3185 22.7871V23.7818C16.3185 24.195 16.5941 24.4705 16.9922 24.4705ZM16.3185 14.5537L16.2113 14.5231C15.0936 14.217 14.5731 13.7273 14.5731 12.9774C14.5731 12.1969 15.2314 11.5695 16.3185 11.4164V14.5537ZM17.6659 17.3236L17.9108 17.3696C19.1357 17.6909 19.5951 18.1806 19.5951 18.9917C19.5951 19.8641 18.9367 20.4915 17.6659 20.6292V17.3236Z" fill="white"/>
</svg>
