<svg width="24" height="37" viewBox="0 0 24 37" fill="none" xmlns="http://www.w3.org/2000/svg">
<path fill-rule="evenodd" clip-rule="evenodd" d="M23.2812 17.078L8.3125 36.0312C7.15625 37.4999 5.28125 36.5468 5.95312 34.7499L10.5469 22.4062H1.53125C0.8125 22.4062 0.28125 21.9062 0.28125 21.2187C0.28125 20.828 0.4375 20.4843 0.71875 20.1249L15.6875 1.15617C16.8438 -0.312584 18.7031 0.640541 18.0469 2.43742L13.4531 14.7968H22.4688C23.1875 14.7968 23.7188 15.2968 23.7188 15.9843C23.7188 16.3593 23.5625 16.703 23.2812 17.078ZM14.7266 19.7188L10.5547 28.7031L19.0703 17.4844H9.28906L13.4453 8.48438L4.94531 19.7188H14.7266Z" fill="white"/>
</svg>
