<svg width="30" height="43" viewBox="0 0 30 43" fill="none" xmlns="http://www.w3.org/2000/svg">
<path fill-rule="evenodd" clip-rule="evenodd" d="M22.957 31.709C22.957 32.5 22.4121 33.0449 21.6035 33.0449H8.40234C7.61133 33.0449 7.04883 32.5 7.04883 31.709V29.1074C7.04883 27.3077 5.92557 25.8006 4.6295 24.0616C2.86214 21.6903 0.773438 18.8878 0.773438 14.3242C0.773438 5.93945 6.50391 0.279297 15.0117 0.279297C23.502 0.279297 29.2324 5.93945 29.2324 14.3242C29.2324 18.8878 27.1437 21.6903 25.3764 24.0616C24.0803 25.8006 22.957 27.3077 22.957 29.1074V31.709ZM10.459 29.6875H19.5293V28.9844C19.5293 26.37 20.9473 24.4187 22.4314 22.3765C24.0606 20.1345 25.7695 17.7829 25.7695 14.3242C25.7695 7.96094 21.4629 3.74219 14.9941 3.74219C8.52539 3.74219 4.21875 7.96094 4.21875 14.3242C4.21875 17.7829 5.92764 20.1345 7.55686 22.3765C9.04097 24.4187 10.459 26.37 10.459 28.9844V29.6875ZM21.2051 38.0723C22.207 38.0723 23.0156 37.2461 23.0156 36.2617C23.0156 35.2773 22.207 34.4512 21.2051 34.4512H8.79492C7.79297 34.4512 6.98438 35.2773 6.98438 36.2617C6.98438 37.2461 7.79297 38.0723 8.79492 38.0723H21.2051ZM19.8281 39.4785C19.6348 41.3594 17.7012 42.625 15.0117 42.625C12.2871 42.625 10.3711 41.3594 10.1953 39.4785H19.8281Z" fill="white"/>
</svg>
