<svg width="32" height="37" viewBox="0 0 32 37" fill="none" xmlns="http://www.w3.org/2000/svg">
<path fill-rule="evenodd" clip-rule="evenodd" d="M15.9941 36.4629C16.3281 36.4629 16.8203 36.3223 17.2773 36.0762C27.4902 30.6621 31.0586 27.9902 31.0586 21.5918V8.46094C31.0586 6.14062 30.2324 5.24414 28.2461 4.40039C26.5999 3.71057 21.2902 1.87415 18.9018 1.0736L18.5012 0.939942C18.3794 0.899519 18.2698 0.863387 18.1738 0.832031C17.5059 0.603516 16.6797 0.462891 15.9941 0.462891C15.3086 0.462891 14.5 0.638672 13.8145 0.832031C12.0391 1.32422 5.58789 3.64453 3.74219 4.40039C1.75586 5.24414 0.929688 6.14062 0.929688 8.46094V21.5918C0.929688 27.9902 4.51562 30.6445 14.7109 36.0762C15.168 36.3223 15.6602 36.4629 15.9941 36.4629ZM15.9883 32.2969C15.7598 32.2969 15.5488 32.2266 15.0566 31.9102C14.6761 31.6775 14.3083 31.4532 13.9529 31.2364C6.87074 26.9167 4.70312 25.5946 4.70312 20.9414V9.02344C4.70312 8.37305 4.84375 8.10938 5.33594 7.91602C6.38335 7.49414 7.84311 6.96692 9.34033 6.43773L10.0903 6.17345C10.4377 6.05137 10.7837 5.93011 11.1236 5.81095L11.1237 5.81093C12.6182 5.28714 13.9967 4.80402 14.8633 4.4707C15.373 4.29492 15.6895 4.22461 15.9883 4.22461C16.3047 4.22461 16.6211 4.29492 17.1309 4.4707C18.4228 4.97189 20.872 5.84707 23.1417 6.65809L23.1418 6.65812C24.4543 7.12712 25.7067 7.57466 26.6406 7.91602C27.1504 8.0918 27.291 8.37305 27.291 9.02344V20.9414C27.291 25.7125 24.8973 27.1453 17.7901 31.3995L17.7898 31.3997C17.5129 31.5655 17.2288 31.7355 16.9375 31.9102C16.4453 32.209 16.2168 32.2969 15.9883 32.2969ZM15.7891 24.8789C15.4023 25.4766 14.8047 25.8281 14.1367 25.8281C13.4336 25.8281 12.8887 25.5117 12.3789 24.8965L8.35352 20.0273C8.01953 19.6055 7.84375 19.2012 7.84375 18.7441C7.84375 17.7949 8.59961 17.0566 9.54883 17.0566C10.1113 17.0566 10.5508 17.25 10.9727 17.7949L14.084 21.6621L20.834 10.9043C21.2383 10.2539 21.748 9.91992 22.3457 9.91992C23.2598 9.91992 24.1035 10.5879 24.1035 11.5371C24.1035 11.9414 23.9102 12.3809 23.6465 12.7676L15.7891 24.8789Z" fill="white"/>
</svg>
